Coordinates
version=1
nRows=7
nColumns=40
inDegrees=yes

Units are S.I. units (second, meters, Newtons, ...)
Angles are in degrees.

endheader
time	pelvis_tilt	pelvis_list	pelvis_rotation	pelvis_tx	pelvis_ty	pelvis_tz	hip_flexion_r	hip_adduction_r	hip_rotation_r	knee_angle_r	knee_angle_r_beta	ankle_angle_r	subtalar_angle_r	mtp_angle_r	hip_flexion_l	hip_adduction_l	hip_rotation_l	knee_angle_l	knee_angle_l_beta	ankle_angle_l	subtalar_angle_l	mtp_angle_l	lumbar_extension	lumbar_bending	lumbar_rotation	arm_flex_r	arm_add_r	arm_rot_r	elbow_flex_r	pro_sup_r	wrist_flex_r	wrist_dev_r	arm_flex_l	arm_add_l	arm_rot_l	elbow_flex_l	pro_sup_l	wrist_flex_l	wrist_dev_l
     51.93928571	     -2.70608075	     -4.55184232	     10.57202998	      1.19803019	      0.90383214	      0.55729298	     18.98994408	      6.43880836	     -9.12242573	     33.75015577	     33.75015577	     19.69378048	    -16.53949454	      2.07227945	     37.40290775	    -11.15001955	      8.60341944	     55.34830773	     55.34830773	     11.09711856	    -19.21450707	     16.81585450	    -12.62311112	      3.35567928	      0.40389916	     40.33896684	    -18.50326745	     -7.56015933	     60.15686552	     45.30554023	      0.00000000	      0.00000000	     -0.11982007	     -8.35146322	      8.75757752	     20.27729104	     45.19869884	      0.00000000	      0.00000000
     51.96107143	     -2.95055990	     -4.52786991	     11.72591542	      1.19660719	      0.90509032	      0.55687508	     18.60627922	      6.24287139	     -9.96655399	     32.90298171	     32.90298171	     19.66451067	    -16.56966157	      2.36700922	     37.56438881	    -10.47632112	      8.13443633	     50.47349134	     50.47349134	      8.89324224	    -19.09164593	     12.40489349	    -12.45264649	      3.26670898	      0.76857198	     42.87169579	    -19.43545371	     -7.62703981	     62.48666826	     45.31905845	      0.00000000	      0.00000000	     -3.13228434	     -9.78639074	     15.63006619	     22.63429017	     43.86477943	      0.00000000	      0.00000000
     51.98285714	     -3.38801595	     -4.44079723	     12.77812241	      1.19504999	      0.90676775	      0.55603698	     18.27079006	      5.93842788	    -10.74903639	     31.79385804	     31.79385804	     19.49575510	    -16.50850727	      2.60640618	     37.69139382	     -9.43564345	      8.03098057	     45.59527225	     45.59527225	      7.93992416	    -18.60469033	     12.89400298	    -12.06984428	      3.07524277	      1.24040699	     45.55116744	    -20.28619338	     -7.91228964	     63.79470493	     45.29982313	      0.00000000	      0.00000000	     -4.91868109	    -10.01447172	     15.62972246	     22.24343147	     43.83679528	      0.00000000	      0.00000000
     52.00464286	     -3.59832454	     -4.34250136	     13.80019772	      1.19395677	      0.90910930	      0.55494435	     17.43590870	      5.65143236	    -11.71264051	     30.28974077	     30.28974077	     18.93136108	    -16.11679475	      1.70050507	     37.02030694	     -8.61714469	      7.74129453	     40.02654366	     40.02654366	      4.39202320	    -18.05487707	      7.45870505	    -11.98266169	      2.99388235	      1.19295194	     47.91188681	    -20.70489911	     -7.62093450	     66.86213570	     45.21630794	      0.00000000	      0.00000000	     -7.64645483	    -10.73322225	     15.73838486	     24.49576313	     43.82315599	      0.00000000	      0.00000000
     52.02642857	     -3.91576926	     -4.25221961	     14.66608112	      1.19283998	      0.91149300	      0.55371966	     16.69539172	      5.41133684	    -12.49646891	     28.76860578	     28.76860578	     18.63351897	    -15.61696347	      1.82234523	     36.59849666	     -7.77209952	      7.65431603	     35.30370414	     35.30370414	      3.00576205	    -16.23941952	      7.92875935	    -11.72110181	      2.86587536	      1.47008744	     50.49409363	    -21.07609593	     -7.70656946	     68.30485564	     45.18658507	      0.00000000	      0.00000000	     -9.27010708	    -10.94107738	     15.82628761	     24.37675877	     43.79143900	      0.00000000	      0.00000000
     52.04821429	     -4.24877353	     -4.19213968	     15.37929298	      1.19191853	      0.91377607	      0.55245123	     15.91694591	      5.23300310	    -13.25289924	     27.16487774	     27.16487774	     18.32360401	    -14.98343292	      1.82083952	     36.20396103	     -7.15192605	      7.35778398	     31.10654358	     31.10654358	      1.64093269	    -13.71761188	      8.23404499	    -11.42405912	      2.78477792	      1.75806763	     52.86846593	    -21.25860014	     -7.64695262	     69.87461894	     45.14621130	      0.00000000	      0.00000000	    -10.84161814	    -11.16691172	     15.85640231	     24.63520601	     43.76395301	      0.00000000	      0.00000000
     52.07000000	     -4.51080319	     -4.23296864	     15.98708321	      1.19129387	      0.91575605	      0.55114198	     15.01724891	      5.18227602	    -14.11527617	     25.41675390	     25.41675390	     17.45289222	    -14.30304247	      0.09080003	     35.84292918	     -6.79336796	      6.99006441	     27.56961174	     27.56961174	     -0.46855998	    -11.15552417	      6.31614882	    -11.23265257	      2.80989820	      1.87529748	     55.01405566	    -21.36556811	     -6.93713381	     72.40200405	     45.07555449	      0.00000000	      0.00000000	    -13.32214450	    -11.87196568	     16.22754991	     28.05481547	     43.72741918	      0.00000000	      0.00000000
